<svg xmlns="http://www.w3.org/2000/svg" width="32" height="32" viewBox="0 0 32 32" id="thermometer"><g transform="translate(1111.414 -1963.699)"><path fill="#6d9e4b" fill-rule="evenodd" d="m -1083.2796,1969.6148 c 0.068,0.2087 0.4305,1.2921 0.7205,2.8253 0.3165,1.6728 0.4336,3.6119 -0.1033,4.5412 -1.1677,2.0208 -3.7442,2.7102 -5.7651,1.5426 -2.0208,-1.1676 -2.7101,-3.7441 -1.5425,-5.7649 0.5369,-0.9293 2.2754,-1.7961 3.8828,-2.3576 1.4726,-0.5141 2.5923,-0.7413 2.8076,-0.7866 z" color="#000" font-family="sans-serif" font-weight="400" overflow="visible" style="line-height:normal;text-indent:0;text-align:start;text-decoration-line:none;text-decoration-style:solid;text-decoration-color:#000;text-transform:none;isolation:auto;mix-blend-mode:normal"></path><path fill="#0c232c" style="line-height:normal;font-variant-ligatures:normal;font-variant-position:normal;font-variant-caps:normal;font-variant-numeric:normal;font-variant-alternates:normal;font-feature-settings:normal;text-indent:0;text-align:start;text-decoration-line:none;text-decoration-style:solid;text-decoration-color:#000;text-transform:none;text-orientation:mixed;shape-padding:0;isolation:auto;mix-blend-mode:normal" d="m -1095.9109,1967.6986 c -1.6519,0 -3.0017,1.3491 -3.0017,3 v 14.0098 c -1.6886,1.2805 -2.3898,3.4403 -1.7802,5.4454 0.6398,2.1045 2.5849,3.5453 4.7858,3.5449 2.2008,-3e-4 4.1484,-1.4421 4.7877,-3.5468 0.609,-2.0053 -0.1455,-4.252 -1.7881,-5.4435 v -14.0098 c 0,-1.6509 -1.3498,-3 -3.0016,-3 z" color="#000" font-family="sans-serif" font-weight="400" overflow="visible"></path><path fill="#e5eaf4" style="line-height:normal;font-variant-ligatures:normal;font-variant-position:normal;font-variant-caps:normal;font-variant-numeric:normal;font-variant-alternates:normal;font-feature-settings:normal;text-indent:0;text-align:start;text-decoration-line:none;text-decoration-style:solid;text-decoration-color:#000;text-transform:none;text-orientation:mixed;shape-padding:0;isolation:auto;mix-blend-mode:normal" d="m -1095.9109,1968.6986 c 1.111,0 2.001,0.8896 2.001,2 v 14.2598 c 0,0.1673 0.084,0.3233 0.2228,0.416 1.4666,0.9806 2.1169,2.7989 1.6044,4.4863 -0.5125,1.6875 -2.0657,2.8377 -3.8302,2.8379 -1.7645,3e-4 -3.3172,-1.1485 -3.8302,-2.8359 -0.513,-1.6874 0.1381,-3.5054 1.6044,-4.4863 0.1384,-0.093 0.2213,-0.2493 0.2208,-0.4161 v -14.2597 c 0,-1.1104 0.89,-2 2.0011,-2 z" color="#000" font-family="sans-serif" font-weight="400" overflow="visible"></path><path fill="#0c232c" style="line-height:normal;font-variant-ligatures:normal;font-variant-position:normal;font-variant-caps:normal;font-variant-numeric:normal;font-variant-alternates:normal;font-feature-settings:normal;text-indent:0;text-align:start;text-decoration-line:none;text-decoration-style:solid;text-decoration-color:#000;text-transform:none;text-orientation:mixed;shape-padding:0;isolation:auto;mix-blend-mode:normal" d="m -1095.9137,1986.4486 c -1.2367,0 -2.25,1.0133 -2.25,2.25 0,1.2367 1.0133,2.25 2.25,2.25 1.2367,0 2.25,-1.0133 2.25,-2.25 0,-1.2367 -1.0133,-2.25 -2.25,-2.25 z" color="#000" font-family="sans-serif" font-weight="400" overflow="visible"></path><path fill="#0596c2" style="line-height:normal;font-variant-ligatures:normal;font-variant-position:normal;font-variant-caps:normal;font-variant-numeric:normal;font-variant-alternates:normal;font-feature-settings:normal;text-indent:0;text-align:start;text-decoration-line:none;text-decoration-style:solid;text-decoration-color:#000;text-transform:none;text-orientation:mixed;shape-padding:0;isolation:auto;mix-blend-mode:normal" d="m -1095.9137,1987.4486 c 0.6963,0 1.25,0.5537 1.25,1.25 0,0.6963 -0.5537,1.25 -1.25,1.25 -0.6963,0 -1.25,-0.5537 -1.25,-1.25 0,-0.6963 0.5537,-1.25 1.25,-1.25 z" color="#000" font-family="sans-serif" font-weight="400" overflow="visible"></path><path fill="#0c232c" fill-rule="evenodd" d="m -1095.4132,1979.6982 v 7.25 h -1 v -7.25 z" color="#000" font-family="sans-serif" font-weight="400" overflow="visible" style="line-height:normal;font-variant-ligatures:normal;font-variant-position:normal;font-variant-caps:normal;font-variant-numeric:normal;font-variant-alternates:normal;font-feature-settings:normal;text-indent:0;text-align:start;text-decoration-line:none;text-decoration-style:solid;text-decoration-color:#000;text-transform:none;text-orientation:mixed;shape-padding:0;isolation:auto;mix-blend-mode:normal"></path><path fill="#0c232c" style="line-height:normal;font-variant-ligatures:normal;font-variant-position:normal;font-variant-caps:normal;font-variant-numeric:normal;font-variant-alternates:normal;font-feature-settings:normal;text-indent:0;text-align:start;text-decoration-line:none;text-decoration-style:solid;text-decoration-color:#000;text-transform:none;text-orientation:mixed;shape-padding:0;isolation:auto;mix-blend-mode:normal" d="m -1102.8822,1969.6998 a 0.50005,0.50005 0 0 1 0.3418,0.164 c 0,0 0.3899,0.4355 0.7832,0.9825 0.1966,0.2734 0.3964,0.5753 0.5547,0.8828 0.1582,0.3075 0.289,0.6107 0.289,0.9687 0,1.0987 -0.9013,2 -2,2 -1.0986,0 -2,-0.9013 -2,-2 0,-0.358 0.1308,-0.6612 0.2891,-0.9687 0.1583,-0.3075 0.358,-0.6094 0.5547,-0.8828 0.3933,-0.547 0.7851,-0.9825 0.7851,-0.9825 a 0.50005,0.50005 0 0 1 0.4024,-0.164 z" color="#000" font-family="sans-serif" font-weight="400" overflow="visible"></path><path fill="#a1afd6" style="line-height:normal;font-variant-ligatures:normal;font-variant-position:normal;font-variant-caps:normal;font-variant-numeric:normal;font-variant-alternates:normal;font-feature-settings:normal;text-indent:0;text-align:start;text-decoration-line:none;text-decoration-style:solid;text-decoration-color:#000;text-transform:none;text-orientation:mixed;shape-padding:0;isolation:auto;mix-blend-mode:normal" d="m -1102.9132,1970.9986 c -0.1325,0.1606 -0.1725,0.1935 -0.3438,0.4317 -0.1783,0.2479 -0.3536,0.5188 -0.4765,0.7578 -0.123,0.2389 -0.1797,0.4535 -0.1797,0.5097 0,0.5582 0.4418,1 1,1 0.5582,0 1,-0.4418 1,-1 0,-0.056 -0.057,-0.2708 -0.1797,-0.5097 -0.123,-0.239 -0.2982,-0.5099 -0.4766,-0.7578 -0.1714,-0.2384 -0.2112,-0.2711 -0.3437,-0.4317 z" color="#000" font-family="sans-serif" font-weight="400" overflow="visible"></path><path fill="#0c232c" style="line-height:normal;font-variant-ligatures:normal;font-variant-position:normal;font-variant-caps:normal;font-variant-numeric:normal;font-variant-alternates:normal;font-feature-settings:normal;text-indent:0;text-align:start;text-decoration-line:none;text-decoration-style:solid;text-decoration-color:#000;text-transform:none;text-orientation:mixed;shape-padding:0;isolation:auto;mix-blend-mode:normal" d="m -1106.8822,1965.6998 a 0.50005,0.50005 0 0 1 0.3418,0.164 c 0,0 0.3899,0.4355 0.7832,0.9825 0.1966,0.2734 0.3964,0.5753 0.5547,0.8828 0.1582,0.3075 0.289,0.6107 0.289,0.9687 0,1.0987 -0.9013,2 -2,2 -1.0986,0 -2,-0.9013 -2,-2 0,-0.358 0.1308,-0.6612 0.2891,-0.9687 0.1583,-0.3075 0.358,-0.6094 0.5547,-0.8828 0.3933,-0.547 0.7851,-0.9825 0.7851,-0.9825 a 0.50005,0.50005 0 0 1 0.4024,-0.164 z" color="#000" font-family="sans-serif" font-weight="400" overflow="visible"></path><path fill="#a1afd6" style="line-height:normal;font-variant-ligatures:normal;font-variant-position:normal;font-variant-caps:normal;font-variant-numeric:normal;font-variant-alternates:normal;font-feature-settings:normal;text-indent:0;text-align:start;text-decoration-line:none;text-decoration-style:solid;text-decoration-color:#000;text-transform:none;text-orientation:mixed;shape-padding:0;isolation:auto;mix-blend-mode:normal" d="m -1106.9132,1966.9986 c -0.1325,0.1606 -0.1725,0.1935 -0.3438,0.4317 -0.1783,0.2479 -0.3536,0.5188 -0.4765,0.7578 -0.123,0.2389 -0.1797,0.4535 -0.1797,0.5097 0,0.5582 0.4418,1 1,1 0.5582,0 1,-0.4418 1,-1 0,-0.056 -0.057,-0.2708 -0.1797,-0.5097 -0.123,-0.239 -0.2982,-0.5099 -0.4766,-0.7578 -0.1714,-0.2384 -0.2112,-0.2711 -0.3437,-0.4317 z" color="#000" font-family="sans-serif" font-weight="400" overflow="visible"></path><g stroke="#0c242d" stroke-width="1.947" transform="matrix(.4413 .25896 -.25478 .44853 -829.359 1505.874)"><path fill="none" stroke-linecap="round" stroke-linejoin="round" d="M15.999941 1049.3551l.000117-19.4858M11.28122 1037.1597l4.48936 3.9902M16.10057 1038.5842l4.489618-4.2402M15.665071 1035.0797l-2.616872-2.243M12.886038 1043.7335c-.957107-.4048-1.819035-.9906-2.542893-1.7144-1.4477149-1.4477-2.3431452-3.4477-2.3431452-5.6569 0-4.4183 8.0000002-11.5 8.0000002-11.5 0 0 7.999999 7.0817 7.999999 11.5 0 2.2092-.895431 4.2092-2.343146 5.6569-.723857.7238-1.585786 1.3096-2.542893 1.7144"></path></g></g></svg>